<svg width="314" height="314" viewBox="0 0 314 314" fill="none" xmlns="http://www.w3.org/2000/svg">
<path d="M115 45C115 55.4998 109.337 65.3867 99.4264 72.8198C89.5141 80.254 75.5913 85 60 85C44.4087 85 30.4859 80.254 20.5736 72.8198C10.6629 65.3867 5 55.4998 5 45C5 34.5002 10.6629 24.6132 20.5736 17.1802C30.4859 9.74599 44.4087 5 60 5C75.5913 5 89.5141 9.74599 99.4264 17.1802C109.337 24.6132 115 34.5002 115 45Z" stroke="#332600" stroke-width="10"/>
<path d="M309 45C309 55.4998 303.337 65.3867 293.426 72.8198C283.514 80.254 269.591 85 254 85C238.409 85 224.486 80.254 214.574 72.8198C204.663 65.3867 199 55.4998 199 45C199 34.5002 204.663 24.6132 214.574 17.1802C224.486 9.74599 238.409 5 254 5C269.591 5 283.514 9.74599 293.426 17.1802C303.337 24.6132 309 34.5002 309 45Z" stroke="#332600" stroke-width="10"/>
<path d="M109 29L129.999 5H156.934H183.868L204.868 29" stroke="#332600" stroke-width="10"/>
<path d="M5 150V110.842L24.0782 122.317C49.0789 137.353 80.34 137.353 105.341 122.317L115.782 116.037C122.685 111.885 131.622 113.756 136.279 120.328C146.401 134.611 167.599 134.611 177.721 120.328C182.378 113.756 191.315 111.885 198.218 116.037L208.659 122.317C233.66 137.353 264.921 137.353 289.922 122.317L309 110.842V150C309 164.912 296.912 177 282 177H32C17.0883 177 5 164.912 5 150Z" stroke="#332600" stroke-width="10"/>
<path d="M5 270.633V201.73L37.1997 216.207C63.4668 228.017 93.5332 228.017 119.8 216.207C143.459 205.57 170.541 205.57 194.2 216.207C220.467 228.017 250.533 228.017 276.8 216.207L309 201.73V270.633C309 280.198 302.725 288.63 293.562 291.377L271.439 298.008C248.485 304.888 223.82 303.266 201.964 293.44C173.367 280.582 140.633 280.582 112.036 293.44C90.18 303.266 65.5151 304.888 42.5608 298.008L20.4378 291.377C11.2754 288.63 5 280.198 5 270.633Z" stroke="#332600" stroke-width="10"/>
</svg>
